<svg xmlns="http://www.w3.org/2000/svg" viewBox="0 0 56.7 56.7"><title>cyberus_buttony_login_icon</title><path d="M36.3,28.2a6.1,6.1,0,0,1-12.2,0,6.1,6.1,0,0,1,12.2,0Zm11,0h-11m8.6,0v4.7M17.7,48.2A23.1,23.1,0,0,1,6.8,28.7a23.2,23.2,0,0,1,13.9-21m20.4,7.4A18,18,0,0,0,30,11.3,17.6,17.6,0,0,0,12.2,28.8,17.6,17.6,0,0,0,30,46.2a17.3,17.3,0,0,0,8.5-2.1m-4.2-27a13.4,13.4,0,0,0-4-.6A12.4,12.4,0,0,0,17.7,28.8a12.2,12.2,0,0,0,2.3,7" style="fill:none;stroke:#fff;stroke-linecap:round;stroke-miterlimit:10;stroke-width:1.5px"/></svg>